<svg xmlns="http://www.w3.org/2000/svg" xmlns:xlink="http://www.w3.org/1999/xlink" viewBox="0 0 32 32">
  <path d="M 22 30 h -5 a 7 7 0 0 1 -7 -7 a 6.7 6.7 0 0 1 2 -4.7 A 6.7 6.7 0 0 0 10 18 C 5 18 4 24.6 4 30 H 2 c 0 -11.5 4.3 -14 8 -14 a 10.1 10.1 0 0 1 4.5 1.1 a 1 1 0 0 1 0.1 1.7 A 4.9 4.9 0 0 0 17 28 h 5 z" fill="#63e2b7"></path>
  <path d="M 18 24 v -2 a 8 8 0 1 0 -8 -8 H 8 a 10 10 0 1 1 10 10 z" fill="#e8e8e8"></path>
  <line x1="22" x2="28" y1="21" y2="30" stroke="#e8e8e8" stroke-width="2" />
</svg>